<?xml version="1.0" encoding="utf-8"?>
<!-- Generator: Adobe Illustrator 27.3.1, SVG Export Plug-In . SVG Version: 6.00 Build 0)  -->
<svg version="1.1" id="Слой_1" xmlns="http://www.w3.org/2000/svg" xmlns:xlink="http://www.w3.org/1999/xlink" x="0px" y="0px"
	 viewBox="0 0 1802.1 1864.2" style="enable-background:new 0 0 1802.1 1864.2;" xml:space="preserve">
<style type="text/css">
	.st0{fill:url(#SVGID_1_);}
	.st1{fill:url(#SVGID_00000094603574845066482330000009269382697723923893_);}
	.st2{fill:#FFC755;}
	.st3{fill:#FAE6DE;}
	.st4{fill:url(#SVGID_00000155115945060916636290000003156853639344120732_);}
	.st5{fill:#E3E3E3;}
	.st6{fill:#F2C138;}
	.st7{fill:#EEA886;}
	.st8{fill:#CF8C6C;}
	.st9{fill:#DB9C7C;}
	.st10{fill:#F08D29;}
	.st11{fill:#272A45;}
	.st12{fill:#FCCCA2;}
	.st13{fill:#EEA987;}
	.st14{fill:#D6C5BE;}
	.st15{fill:#B8A9A1;}
	.st16{fill:#51578F;}
	.st17{fill:#A77860;}
	.st18{fill:url(#SVGID_00000116928816067675424380000008113137568309850019_);}
	.st19{fill:#363A5E;}
	.st20{fill:#313657;}
	.st21{fill:#EDDAD3;}
	.st22{fill:#CFBEB8;}
	.st23{fill:#494F80;}
	.st24{fill:#2A3C57;}
	.st25{fill:#6EA2E8;}
	.st26{fill:#6696D6;}
	.st27{fill:#36572B;}
	.st28{fill:#45613C;}
	.st29{fill:#925E2E;}
	.st30{fill:#48753A;}
	.st31{fill:#538742;}
	.st32{fill:#877670;}
	.st33{fill:#876455;}
	.st34{fill:#715346;}
	.st35{fill:#9E633A;}
	.st36{fill:#97A43C;}
	.st37{fill:#82522F;}
	.st38{fill:#C67B47;}
	.st39{fill:#202338;}
	.st40{fill:#81807E;}
	.st41{fill:#292C47;}
	.st42{fill:#DBD8E3;}
	.st43{fill:#1D2033;}
	.st44{fill:#323657;}
	.st45{fill:#E8734D;}
	.st46{fill:#C4C1CC;}
	.st47{fill:#3A4066;}
	.st48{fill:#EFAA88;}
	.st49{fill:#FFDC7D;}
	.st50{fill:#FFD887;}
	.st51{fill:#FFD989;}
	.st52{fill:#E2D2CA;}
	.st53{fill:#706865;}
	.st54{fill:#CCBDB7;}
	.st55{fill:#FFAA55;}
	.st56{fill:#B59074;}
	.st57{fill:#D44040;}
	.st58{fill:#EAD8CF;}
	.st59{fill:#DA9B5B;}
	.st60{fill:#424773;}
	.st61{fill:#3A3F47;}
	.st62{fill:#918783;}
	.st63{fill:#5E5854;}
	.st64{fill:#BFB2AC;}
	.st65{fill:#F7F7F7;}
	.st66{fill:url(#SVGID_00000158025158262209440010000016473676085630079909_);}
	.st67{fill:#F5F7FF;}
	.st68{fill:#FFC655;}
	.st69{fill:#DFE1E8;}
</style>
<g>
	<g>
		<linearGradient id="SVGID_1_" gradientUnits="userSpaceOnUse" x1="1077.0707" y1="257.5731" x2="1568.3441" y2="257.5731">
			<stop  offset="0" style="stop-color:#FF9F55"/>
			<stop  offset="1" style="stop-color:#FFD255"/>
		</linearGradient>
		<path class="st0" d="M1527.8,204.4c-5-19.3-12.6-37.5-22.5-54.3l22.9-34.5l-31.8-31.8l-31.8-31.8L1430.1,75
			c-16.8-9.9-35-17.5-54.3-22.5l-8.2-40.6h-45h-45l-8.2,40.6c-19.3,5-37.5,12.6-54.3,22.5l-34.5-22.9L1149,83.9l-31.8,31.8
			l22.9,34.5c-9.9,16.8-17.5,35-22.5,54.3l-40.6,8.2v45v45l40.6,8.2c5,19.3,12.6,37.5,22.5,54.3l-22.9,34.5l31.8,31.8l31.8,31.8
			l34.5-22.9c16.8,9.9,35,17.5,54.3,22.5l8.2,40.6h45h45l8.2-40.6c19.3-5,37.5-12.6,54.3-22.5l34.5,22.9l31.8-31.8l31.8-31.8
			l-22.9-34.5c9.9-16.8,17.5-35,22.5-54.3l40.6-8.2v-45v-45L1527.8,204.4z M1322.7,415.2c-87,0-157.6-70.6-157.6-157.6
			c0-87,70.6-157.6,157.6-157.6s157.6,70.6,157.6,157.6C1480.3,344.6,1409.7,415.2,1322.7,415.2z"/>
	</g>
	<g>
		
			<linearGradient id="SVGID_00000110468931977129865060000010132948359931860610_" gradientUnits="userSpaceOnUse" x1="1571.8441" y1="379.9616" x2="1776.8851" y2="379.9616">
			<stop  offset="0" style="stop-color:#FF9F55"/>
			<stop  offset="1" style="stop-color:#FFD255"/>
		</linearGradient>
		<path style="fill:url(#SVGID_00000110468931977129865060000010132948359931860610_);" d="M1760,357.8c-2.1-8.1-5.3-15.7-9.4-22.7
			l9.6-14.4l-13.3-13.3l-13.3-13.3l-14.4,9.6c-7-4.1-14.6-7.3-22.7-9.4l-3.4-16.9h-18.8h-18.8l-3.4,16.9c-8.1,2.1-15.7,5.3-22.7,9.4
			l-14.4-9.6l-13.3,13.3l-13.3,13.3l9.6,14.4c-4.1,7-7.3,14.6-9.4,22.7l-16.9,3.4V380v18.8l16.9,3.4c2.1,8.1,5.3,15.7,9.4,22.7
			l-9.6,14.4l13.3,13.3l13.3,13.3l14.4-9.6c7,4.1,14.6,7.3,22.7,9.4l3.4,16.9h18.8h18.8l3.4-16.9c8.1-2.1,15.7-5.3,22.7-9.4
			l14.4,9.6l13.3-13.3l13.3-13.3l-9.6-14.4c4.1-7,7.3-14.6,9.4-22.7l16.9-3.4V380v-18.8L1760,357.8z M1674.4,445.7
			c-36.3,0-65.8-29.4-65.8-65.8s29.4-65.8,65.8-65.8c36.3,0,65.8,29.4,65.8,65.8S1710.7,445.7,1674.4,445.7z"/>
	</g>
	<g>
		<polygon class="st2" points="1285.8,970 1160,970 1160,1061.2 1266.6,1061.2 1285.8,1080.4 		"/>
	</g>
	<g>
		<polygon class="st3" points="397.7,610.7 219.8,610.7 219.8,739.6 370.5,739.6 397.7,766.7 		"/>
	</g>
	<g>
		
			<linearGradient id="SVGID_00000076594190660030915000000011197029260173819027_" gradientUnits="userSpaceOnUse" x1="857.4467" y1="336.6847" x2="857.4467" y2="1238.406">
			<stop  offset="0" style="stop-color:#9A5CFF"/>
			<stop  offset="0.9948" style="stop-color:#4059BF"/>
		</linearGradient>
		<path style="fill:url(#SVGID_00000076594190660030915000000011197029260173819027_);" d="M564.6,1303.7
			c0-167.4,13-238.7,38.9-301.9c25.9-63.2,79.4-118.3,160.4-165.3c24.3-14.6,54.3-31.2,89.9-49.8c35.6-18.6,70.5-40.9,104.5-66.8
			c34-25.9,62.8-56.3,86.3-91.1c23.5-34.8,35.2-74.9,35.2-120.3c0-34-6.5-64-19.4-89.9c-13-25.9-30-47.8-51-65.6
			c-21.1-17.8-45.8-31.2-74.1-40.1c-28.4-8.9-57.1-13.4-86.3-13.4c-35.7,0-68.1,6.1-97.2,18.2c-29.2,12.2-55.5,27.6-79,46.2
			c-23.5,18.6-44.6,39.7-63.2,63.2c-18.6,23.5-34.4,45.8-47.4,66.8L350.7,348c21-50.2,49-94.8,83.9-133.7
			c34.8-38.9,74.5-71.7,119.1-98.4c44.5-26.7,92.7-47,144.6-60.8c51.8-13.7,105.3-20.7,160.4-20.7c61.6,0,122.3,8.9,182.3,26.7
			c59.9,17.8,113.8,46.2,161.6,85.1c47.8,38.9,86.7,88.7,116.7,149.5c30,60.8,45,133.3,45,217.5c0,51.9-6.1,97.6-18.2,137.3
			c-12.2,39.7-29.6,75.8-52.3,108.2c-22.7,32.4-49.4,61.6-80.2,87.5c-30.8,25.9-65.6,51-104.5,75.3c-32.4,19.4-64.8,38.1-97.2,55.9
			c-32.4,17.8-62,37.7-88.7,59.5c-26.7,21.9-48.6,47-65.6,75.3c-17,28.4-25.5,62.8-25.5,191.3H564.6z M569.4,1782v-335.4h269.8V1782
			H569.4z"/>
	</g>
	<g>
		<path class="st5" d="M452.1,901.9H51.2c-1.1,0-2.1-0.9-2.1-2.1v-19.7c0-1.1,0.9-2.1,2.1-2.1h400.9c1.1,0,2.1,0.9,2.1,2.1v19.7
			C454.2,901,453.3,901.9,452.1,901.9z"/>
		<path class="st5" d="M328.7,1104.7H51.2c-1.1,0-2.1-0.9-2.1-2.1V1083c0-1.1,0.9-2.1,2.1-2.1h277.5c1.1,0,2.1,0.9,2.1,2.1v19.7
			C330.8,1103.8,329.9,1104.7,328.7,1104.7z"/>
		<path class="st5" d="M281.7,952.6H51.2c-1.1,0-2.1-0.9-2.1-2.1v-19.7c0-1.1,0.9-2.1,2.1-2.1h230.5c1.1,0,2.1,0.9,2.1,2.1v19.7
			C283.7,951.7,282.8,952.6,281.7,952.6z"/>
		<path class="st5" d="M366.6,1003.3H51.2c-1.1,0-2.1-0.9-2.1-2.1v-19.7c0-1.1,0.9-2.1,2.1-2.1h315.4c1.1,0,2.1,0.9,2.1,2.1v19.7
			C368.7,1002.4,367.7,1003.3,366.6,1003.3z"/>
		<path class="st5" d="M183.3,1054H51.2c-1.1,0-2.1-0.9-2.1-2.1v-19.7c0-1.1,0.9-2.1,2.1-2.1h132.1c1.1,0,2.1,0.9,2.1,2.1v19.7
			C185.4,1053.1,184.5,1054,183.3,1054z"/>
		<path class="st6" d="M183.3,851.8H51.2c-1.1,0-2.1-0.9-2.1-2.1v-19.7c0-1.1,0.9-2.1,2.1-2.1h132.1c1.1,0,2.1,0.9,2.1,2.1v19.7
			C185.4,850.9,184.5,851.8,183.3,851.8z"/>
	</g>
	<g>
		<g>
			<g>
				<path class="st7" d="M904.9,1027.6c0,0-16.7-22.1-19.2-25.6c-2.5-3.5-2.5-16.1,0.9-29.2c3.2-12.8,5.8-31.2,7.9-32.4
					c2.1-1.2,3.3-3.1,9.4-2.6c6,0.5,10.8,4.3,10.8,4.3s7.8-2.8,13.3,2.2c0,0,7.4-2.3,12.8,4.5c0,0,7.3-2.1,10.8,3.2
					c0,0,0.3,11.8,1.6,16.2c1.4,4.3-1.7,35.6-6.5,59C946.8,1027.2,936.7,1041.2,904.9,1027.6z"/>
			</g>
		</g>
		<g>
			<g>
				<path class="st8" d="M911.9,989c0,0,12.1,7,14.5,10.6c2.4,3.7,22.4-19.9,22.4-19.9S920.9,974.6,911.9,989z"/>
			</g>
		</g>
		<g>
			<g>
				<path class="st9" d="M893.8,944.1c0,0-1.4,34.4,4.1,35.3c5.6,0.9,8.2-2.1,8.2-2.1l5.9,14.4c0,0,9.3,7.4,14.7-4.9
					c0,0,8,7.8,11.8-4.7c0,0,7.6,2.8,10.4-2.7c2.8-5.5,2.8-27.6,2.8-27.6s-1.9-5.2-10.6-3.7c0,0-4.8-6.8-12.9-4.4
					c0,0-7.8-6.2-16.5-3.6c0,0-9.1-5.6-17.5,0.3C894.2,940.6,893.9,942.7,893.8,944.1z"/>
			</g>
		</g>
		<g>
			<g>
				<path class="st7" d="M885.6,1001c0,0,11.7-20.6,23.1-29c2.6-1.9,5.4-3.3,8.2-1.6c2.8,1.7,3.9,7.7-0.8,16.9
					c-4.6,9.2-6.4,23.1-6.4,23.1S902.3,1018.3,885.6,1001z"/>
			</g>
		</g>
		<g>
			<path class="st7" d="M911.6,940.2c0,0-6,37-4.6,40.5c1.4,3.5-12.2,1.4-13.2-1.7c-1-3.1-0.9-34.3-0.2-37.3
				C894.4,938.6,905.5,932.8,911.6,940.2z"/>
		</g>
		<g>
			<path class="st7" d="M891.8,948.2c0,0,10.4-60.3,17.5-59.6c6.8,0.7,10.2,15.3,0.3,61.3C900.1,994.6,891.8,948.2,891.8,948.2z"/>
		</g>
		<path class="st7" d="M946.8,1027.2c0,0-6.5,15.7-12.5,22.6c-6.1,6.9-26.8-9.5-29.3-22.1C902.4,1014.9,946.8,1027.2,946.8,1027.2z"
			/>
		<g>
			<rect x="515.7" y="733" class="st10" width="3.3" height="80.7"/>
		</g>
		<path class="st11" d="M785.4,731l-174.2,55.7L437,731l174.2-63.9L785.4,731z"/>
		<path class="st12" d="M676.2,844.8c0,0,57.3,119.9,17.9,127.1c-54.2,9.8-76.1-89.5-76.1-89.5L676.2,844.8z"/>
		<path class="st11" d="M748.5,1166.3c15.1,22.4,47.2,52.3,63.1,52.1c10.3-0.1,176.1-143.5,176.1-151.8
			c-0.1-9.4-96.4-50.2-96.4-50.2s-27.9,34.1-43.5,55.5c-17.9,24.5-31.8,41.1-37,44.7c-5.2,3.6-29.1-37.1-29.1-37.1
			c-11.4-19.4-24.2-41.1-41.7-74.9c-16.9-32.6-83.6-53.4-83.6-53.4c-79.6,35.5,68.9,176,68.9,176S741.3,1156,748.5,1166.3z"/>
		<path class="st11" d="M776,1448.9H445.4c0.5-7.1,1.1-14,1.6-20.8c6-76.5,12.7-134.6,19.8-153.5c28.3-75.7-14.1-294.6-14.1-294.6
			s20.2-18.2,96.3-35l158,32.6c0,0,41.2,31.5,45.2,88.4c3.9,56.9-7.9,211,0.8,254.7c1.9,9.6,9.2,50,19.4,107.4
			C773.5,1434.9,774.7,1441.8,776,1448.9z"/>
		<g>
			<path class="st7" d="M645.1,900.8c0,0-6.9,62.9-5.5,83.4c0,0-35.9,35.7-76.7-41.7c0,0,17.2-31.9,4.2-75.3
				C554.2,823.8,645.1,900.8,645.1,900.8z"/>
		</g>
		<g>
			<polygon class="st7" points="639.6,984.2 639.6,1016.8 598.3,986.2 			"/>
		</g>
		<path class="st13" d="M547.9,790.6c0,0-7.5-9-10.4,0.1c-2.8,9,6.4,35.9,7.4,39.8c0,0,4.6,15.1,6.4,13.2
			C553.2,841.7,547.9,790.6,547.9,790.6z"/>
		<path class="st13" d="M679.6,791.7c0,0,7.5-9,10.4,0.1c2.8,9-6.4,35.9-7.4,39.8c0,0-4.6,15.1-6.4,13.2
			C674.3,842.8,679.6,791.7,679.6,791.7z"/>
		<path class="st13" d="M625.6,704.6c0,0,69.2,10.6,59.1,118.7c-10.1,108.2-71.2,99.6-75.3,99.5c-4.1-0.1-61.3,2.2-66.2-129.7
			C543.1,793.1,540.8,695.5,625.6,704.6z"/>
		<path class="st12" d="M556.4,786.6c0,0,76.8,22.7,113.6,15.4c0,0,2.3,13.5,7.6,14.3c5.3,0.8,8-25.7,8-25.7s1.8-88-78.4-88.8
			c-80.2-0.8-63.9,95.3-63.9,95.3l1.1,16.4C544.4,813.5,555.9,818,556.4,786.6z"/>
		<path class="st10" d="M656.3,951.2v120.1l54.1-95.2C710.5,976.1,690.2,957.3,656.3,951.2z"/>
		<g>
			<path class="st14" d="M639.6,1016.8l21-24.4l-18.2-64.2C642.4,928.2,636.2,964,639.6,1016.8z"/>
		</g>
		<g>
			<polygon class="st3" points="660.6,992.4 688.8,1004.5 642.4,928.2 			"/>
		</g>
		<polygon class="st15" points="656.3,1071.3 656.3,997.4 639.6,1016.8 618.6,1000.7 608,1014.5 		"/>
		<g>
			<polygon class="st14" points="639.6,1016.8 622.4,995.8 564.7,938.6 554.7,951.7 			"/>
		</g>
		<path class="st11" d="M518.6,1428.2c2.7,9,5,16.2,6.4,20.8H416.3c-0.6-6.6,2.4-13.5,2.1-20.8c-1.9-41.2-1.8-62.1-3-92.6
			c-2.9-72.3,1.6-121.9,2.4-134.1c0.7-12.2-0.5-86.2,2.5-104.2s-7.7-55.2,12-93.4c19.7-38.2,75.1-48,75.1-48
			c48,15.7,1.4,108.6-5,153.6c-6.4,45-27.1,149.2-15.4,202.6C494.7,1347.3,509.4,1397.9,518.6,1428.2z"/>
		<path class="st10" d="M548.9,945.1l107.4,126.2l-198.9-94.8C457.5,976.5,496.9,947.1,548.9,945.1z"/>
		<g>
			<polygon class="st3" points="622.4,995.8 598.3,1027.2 548.9,945.1 564.7,938.6 			"/>
		</g>
		<path class="st10" d="M517.3,811.2L517.3,811.2C517.3,811.2,517.3,811.2,517.3,811.2c-0.1,0-0.1,0-0.1,0v0
			c-7.7,0.4-6.8,39.8-6.8,39.8h6.8h0.1h6.8C524.2,851,525.1,811.6,517.3,811.2z"/>
		<path class="st11" d="M681.4,742.5c0,0-9.1-56.7-70.3-50.7c-61.2,6-65.4,26.6-70,55.6L681.4,742.5z"/>
		<path class="st16" d="M683.5,769.9c0,0-44.8-21.6-141.5,1.7l-0.9-24.2c0,0,1.5-0.6,4.4-1.5c16.7-5.5,78.2-23.1,132.7-4.5
			c1.1,0.4,2.2,0.8,3.3,1.2L683.5,769.9L683.5,769.9z"/>
		<path class="st17" d="M577.8,908.6c0,0,22.6,28,60.8,8.6c0,0-12.6,20.5-32.3,19.1S577.8,908.6,577.8,908.6z"/>
		
			<linearGradient id="SVGID_00000065784053442030044560000006335979063192354210_" gradientUnits="userSpaceOnUse" x1="318.602" y1="1438.9374" x2="899.8774" y2="1438.9374">
			<stop  offset="0" style="stop-color:#FF9F55"/>
			<stop  offset="1" style="stop-color:#FFD255"/>
		</linearGradient>
		
			<rect x="318.6" y="1428.6" style="fill:url(#SVGID_00000065784053442030044560000006335979063192354210_);" width="581.3" height="20.8"/>
	</g>
	<g>
		<g>
			<g>
				<g>
					<g>
						<g>
							<path class="st13" d="M1527.9,1205.9c0,0,6.7-6.2,5.3-10.8c-1.1-3.9,0.6-8.4,1-10.2c0.6-2.4,0.8-10.3,2.6-9.9
								c3.1,0.7,2.4,13.3,2.7,16s8.5-6.3,11.2-6.8c2.8-0.5,16.8,13.8,10.6,19.3c-6.3,5.5-14.9,7.7-15.8,8.9
								c-0.9,1.2-5.2,4.4-5.2,4.4L1527.9,1205.9z"/>
						</g>
					</g>
				</g>
			</g>
			<g>
				<g>
					<g>
						<g>
							<path class="st13" d="M1549.1,1185.3c0,0,20.3-15.6,22.5-15.5c2.2,0.1,3,1.2,1.2,2.8c-1.8,1.5-19.2,15.6-19.2,15.6
								s27.2-14.4,29-14.7c1.1-0.2,1.9,1.9,1,2.8s-26.2,16.8-26.2,16.8s25.4-13.4,27-13.2c1.4,0.2,2.4,2.5,0.6,3.6
								c-1.8,1.1-24.7,14.9-24.7,14.9s19.1-8.6,20.4-7.6c0.8,0.6,1.9,1.9-3.1,4c-5,2.1-15.9,8.6-15.9,8.6L1549.1,1185.3z"/>
						</g>
					</g>
				</g>
			</g>
		</g>
		<g>
			<path class="st12" d="M1386.8,1018.1c0,0,48.6-4,47.3,47.1c-1.3,51.1-9.4,58.8,0,95s-47.4-20.5-47.4-20.5L1386.8,1018.1z"/>
		</g>
		<g>
			<g>
				<path class="st19" d="M1238.7,1783.4c0,0-18,25.4-15.6,29.4c2.5,4,21.5,4.6,33,0c11.6-4.6,11.8-34.3,17.1-47.1
					c2.2-5.3-2.5-21.1-9.1-22.3c-6.6-1.1-13.7,2.2-13.7,2.2S1257.2,1763.6,1238.7,1783.4z"/>
			</g>
		</g>
		<g>
			<g>
				<g>
					<path class="st7" d="M1250.3,1745.4c0,0-3.8,10.8-5.2,21.1c-1.2,8.6-12.9,26.7-12.3,29c0.5,2.3,15.4,4.4,21.5-1.5
						c6.1-5.9,9.9-23.1,11.3-33.4c1.2-9.6,2.8-14.3,2.8-14.3S1256,1739.1,1250.3,1745.4z"/>
				</g>
			</g>
		</g>
		<g>
			<g>
				<path class="st19" d="M1395.8,1783.8c0,0-17.4,24.9-14.9,29c2.5,4,21.5,4.6,33,0c11.6-4.6,11.8-34.3,17.1-47.1
					c2.2-5.3-2.5-21.1-9.1-22.3s-14.3,2.5-14.3,2.5S1414.3,1764.1,1395.8,1783.8z"/>
			</g>
		</g>
		<g>
			<g>
				<g>
					<path class="st7" d="M1407.6,1745.9c0,0-1.4,11.8-3.6,20.1c-2.2,8.3-14,27.3-13.5,29.6c0.6,2.3,15.4,4.4,21.5-1.5
						c6.1-5.9,10.7-23.1,11.3-33.4c0.6-10.4-1.4-17.1-1.4-17.1S1413.4,1739.6,1407.6,1745.9z"/>
				</g>
			</g>
		</g>
		<g>
			<g>
				<g>
					<path class="st20" d="M1320.6,1333.1c0,0-15.5,75.2-19,94.1c-3.6,18.9-13.5,110.6-14.6,126.2c-1.1,15.6-16.2,74.3-15.5,79.9
						c0.7,5.6-24.5,115.9-24.5,115.9s17.9,1.9,25-1.1c4.9-2,44-101.6,44-129.4c0-38.5,21.5-88.7,24.6-97.5
						c30.7-86.2,36.3-106.7,40.6-111.9c0,0,0.6,7,2.1,18.7c1.7,13.4,9,109.4,12.2,122c3.2,12.6,0.7,55.3,2.5,76.8
						c1.8,21.5,5.1,119.7,5.1,119.7s16.1,0.7,23.1-3.5c2.4-1.4,10.6-105.5,10.9-131.1c0.4-25.6,0.7-60.9,1.4-72
						c6.6-106.1,22.8-121.3-2.7-196.4C1388,1203,1320.6,1333.1,1320.6,1333.1z"/>
				</g>
			</g>
		</g>
		<g>
			<g>
				<polygon class="st19" points="1273.7,1763.5 1273.7,1790 1270.4,1790 1270.4,1769.5 				"/>
			</g>
		</g>
		<g>
			<g>
				<polygon class="st19" points="1431.4,1763.5 1431.4,1790 1428.1,1790 1428.1,1769.5 				"/>
			</g>
		</g>
		<g>
			<path class="st7" d="M1366.6,1154.1c0,0,4.3-10,7.5-21.3c0.2-0.5,0.3-1.1,0.4-1.6c0.4-1.5,0.7-3,1-4.4c0.2-0.8,0.3-1.7,0.5-2.5
				c1.1-6.2,1.4-12.2,0-16.4c-4.7-13.9,29.6-4.3,29.6-4.3s-6.6,36.8,0,49.3C1412.2,1165.3,1366.6,1154.1,1366.6,1154.1z"/>
		</g>
		<g>
			<path class="st21" d="M1424.7,1153.5c3.8-4.8-23-6.4-23-6.4l-31.3-2.7c0,0-21.5,3.6-38.2,9.4c-16.7,5.8-38.6,37.4-38.6,37.4
				s30.2,70.9,36,91.2c5.8,20.3-6.6,72.1-6.6,72.1c36.2,19.7,107.7,2.1,107.7,2.1S1402.1,1181.8,1424.7,1153.5z"/>
		</g>
		<g>
			<path class="st22" d="M1437.4,1239c0,0-1.4,3-5.3,14.7c-3.9-32.9-1.9-50-1.9-50C1430.7,1221.2,1437.4,1239,1437.4,1239z"/>
		</g>
		<g>
			<path class="st7" d="M1403.4,1146l-36.8,30l3.8-31.6C1370.3,1144.4,1391.8,1139.7,1403.4,1146z"/>
		</g>
		<g>
			<path class="st23" d="M1427.7,1272.6c-5.1,21,20.6,86.8,20.6,86.8L1405,1374c-5.3,1.8-11.1-1.6-12-7.1
				c-4.9-27.4-17.5-100.7-19-133.3c-1.8-40.4,27.6-88.1,27.6-88.1c52.3,9,38,88.1,38,88.1s-1.9,5-4.4,12.8c0,0,0,0,0,0
				c-0.6,2-1.3,4.1-2,6.4C1431.4,1258.6,1429.4,1265.4,1427.7,1272.6z"/>
		</g>
		<g>
			<path class="st23" d="M1366.6,1146.1l0.6-1.7c0,0-26.8,4.1-40.4,10.9c-13.6,6.8-39.7,41.9-39.7,41.9l34.1,45
				c0,34.6-12,115.7-12,115.7l23.7,9.7c3.7,1.5,7.7-1.2,7.8-5.1c0.4-24.7,1.5-97.8,2.1-126.4c0.7-34.6,25.4-90.5,25.4-90.5
				C1367.7,1145.7,1367.2,1145.9,1366.6,1146.1z"/>
		</g>
		<g>
			<path class="st7" d="M1318.1,1308.3c0,0,25.7,1,29.7,0c4-1,30.7-12.6,32.3-24c1.6-11.4-62,10.2-62,10.2V1308.3z"/>
		</g>
		<g>
			<polygon class="st24" points="1397.8,1272.6 1293.5,1260.4 1340.6,1298.7 			"/>
		</g>
		<g>
			<polygon class="st25" points="1340.6,1298.7 1397.8,1279.2 1397.8,1272.6 1338.7,1291.5 			"/>
		</g>
		<g>
			<polygon class="st3" points="1372.3,1138.5 1352.5,1170 1342.9,1176 1365.2,1144.7 			"/>
		</g>
		<g>
			<polygon class="st14" points="1352.5,1170 1366.6,1176 1370.3,1144.4 1372.3,1138.5 			"/>
		</g>
		<g>
			<path class="st23" d="M1321.2,1293.5c0,0-1.1,13.3,0,16.1c0,0-64.3-6.4-70.3-15.4c-6-9-5.8-19.9-5.8-19.9L1321.2,1293.5z"/>
		</g>
		<g>
			<polygon class="st25" points="1340.6,1298.7 1310.2,1185.6 1194.6,1173.4 1226.3,1277.5 			"/>
		</g>
		<g>
			<path class="st23" d="M1490.5,1234c5.8-4.8,9.2-6.5,16.2-12.6c10.9-9.4,24.8-21.2,24.8-21.2l13.2,19.4c0,0-32,28.1-48.9,44.8v0
				c0,0-21.5,23.1-26.3,21c-4.8-2-21.9-26.9-35.6-50.8c-13.7-23.9-19.8-39.1-20.5-49.5c-0.7-10.4,33.7-15.4,33.7-15.4l27,58.9
				c0,0,4.8,8.4,7.2,11C1481.3,1239.6,1487.3,1236.2,1490.5,1234z"/>
		</g>
		<g>
			<path class="st7" d="M1391.5,1023.2c-12-2-39.6,1-47.4,32.7c0,0,0,8.8,1.3,15.8c1.3,7-7.1,26.4-5.6,27.6c1.5,1.2,7.9,3.2,7.9,3.2
				s4.6,22.7,12.3,23.4c7.7,0.7,37.5-2,54.3-27.7C1431.2,1072.5,1440.2,1031.2,1391.5,1023.2z"/>
		</g>
		<g>
			<path class="st12" d="M1344.1,1055.9c0,0,18.1,15.7,37.3,20.6c19.2,4.9,29.4,26.5,29.4,26.5s34-33.9,13.5-66.8
				S1344.1,1018,1344.1,1055.9z"/>
		</g>
		<g>
			<path class="st12" d="M1385,1077.7c0,0,20.1,52.8,17.8,65.5c0,0,9.9-1.7,28.5,3.9C1431.2,1147.1,1422.2,1052.8,1385,1077.7z"/>
		</g>
		<g>
			<polygon class="st14" points="1377.2,1170.9 1366.6,1176 1402.7,1140.2 			"/>
		</g>
		<g>
			<polygon class="st3" points="1402.7,1140.2 1377.2,1170.9 1391.2,1183.4 1406.3,1146.5 			"/>
		</g>
		<g>
			<path class="st17" d="M1395.7,1116.2c-0.2,0.3-5.7,8.9-21.3,15c0.4-1.5,0.7-3,1-4.4c0.2-0.8,0.3-1.7,0.5-2.5
				C1376,1124.3,1388.9,1121.1,1395.7,1116.2z"/>
		</g>
		<g>
			<path class="st26" d="M1271.3,1232.9c3.2,6.1,3.2,12.4-0.1,14.1c-3.3,1.7-8.5-1.7-11.8-7.8c-3.2-6.1-3.2-12.4,0.1-14.1
				C1262.8,1223.3,1268.1,1226.8,1271.3,1232.9z"/>
		</g>
		<g>
			<path class="st23" d="M1406.3,1146.5c0,0,33.7-4.6,43.5,30.7C1449.8,1177.2,1406.9,1172.6,1406.3,1146.5z"/>
		</g>
	</g>
	<g>
		<path class="st27" d="M198,1378.5c16.2,0,29.4-13.2,29.4-29.4c0-4.4-1-8.5-2.7-12.3c-4.7-10.1-14.9-17.1-26.7-17.1
			c-16.2,0-29.4,13.2-29.4,29.4c0,5.6,1.6,10.8,4.3,15.2C178,1372.8,187.4,1378.5,198,1378.5z"/>
		<path class="st28" d="M227.9,1375.8c11.4,0,20.6-9.2,20.6-20.6c0-0.7,0-1.3-0.1-1.9c-1-10.5-9.8-18.6-20.5-18.6
			c-11.4,0-20.6,9.2-20.6,20.6c0,7.2,3.7,13.6,9.3,17.2C219.9,1374.6,223.7,1375.8,227.9,1375.8z"/>
		<path class="st29" d="M197.5,1350.6c0,0-1.6,13.7-2.2,32.2c-0.5,18.6,14.2,18.6,14.2,18.6v68.1h10.2c0,0-0.2-69.4,4.9-75
			c5.1-5.6,5.1-32.1,5.1-32.1l-2.9-1.7c0,0,4.4,31.3-15.5,36c-19.9,4.6-12.4-44.7-12.4-44.7L197.5,1350.6z"/>
		<path class="st30" d="M190.7,1353.8c16.9-3.2,28-10.5,34-17c-4.7-10.1-14.9-17.1-26.7-17.1c-16.2,0-29.4,13.2-29.4,29.4
			c0,5.6,1.6,10.8,4.3,15.2C173.7,1360.3,178,1356.2,190.7,1353.8z"/>
		<path class="st31" d="M233.9,1360.9c6.8-2,11.4-4.7,14.5-7.6c-1-10.5-9.8-18.6-20.5-18.6c-11.4,0-20.6,9.2-20.6,20.6
			c0,7.2,3.7,13.6,9.3,17.2C218.7,1368.5,223.4,1363.9,233.9,1360.9z"/>
		<polygon class="st32" points="245.5,1437.9 176.3,1437.9 179.8,1450.7 241.2,1450.7 		"/>
		<polygon class="st33" points="236.9,1450.7 185.5,1450.7 192.6,1479.8 231.9,1479.8 		"/>
		<path class="st31" d="M229.8,1337.2l1.8,0.5c0,0,2.8-7.6,3-8.6C234.7,1328.1,229.8,1337.2,229.8,1337.2z"/>
		<path class="st31" d="M246.5,1337.8l-8.8,2.7c0,0,0.1,0.8,1.2,0.8C240.1,1341.3,246.5,1337.8,246.5,1337.8z"/>
		<path class="st31" d="M243.5,1356.3h-2.2c0,0,0.4,3.3,2.2,5.5C245.3,1363.8,243.5,1356.3,243.5,1356.3z"/>
		<path class="st30" d="M189.5,1314.1c-0.9,0.7,3.2,10.7,3.2,10.7h2.1C194.7,1324.9,190.4,1313.4,189.5,1314.1z"/>
		<path class="st30" d="M199.1,1322.4c0.4-2.7-1.8-7.3-1.8-7.3v6.9C197.3,1321.9,198.7,1325.1,199.1,1322.4z"/>
		<path class="st30" d="M182.8,1362.1c1.3-1,1.3-10.2,1.3-10.2l-2,0.7C182.1,1352.6,181.5,1363.1,182.8,1362.1z"/>
		<path class="st34" d="M219.8,1450.7h-34.4l7.1,29.1h11.3C197.5,1456.4,219.8,1450.7,219.8,1450.7z"/>
	</g>
	<g>
		<path class="st35" d="M194.4,1479.8c2.8-1.2,7.4-14.5,9.6-21.4c0.8-2.4,1.3-4.1,1.3-4.1h-25.8c2.2,15.9,7.6,25.5,7.6,25.5H194.4z"
			/>
		<path class="st36" d="M196.5,1446.4c0-0.9,4.1-4.8,6.2-7.3c2.1-2.5-0.8-7.3-0.8-7.3c-9.2,3.8-7.6,14.7-7.6,14.7
			S196.5,1447.3,196.5,1446.4z"/>
		<path class="st36" d="M191.2,1446.8h1.1c0,0,0.8-18.7-6-21.3c-6.8-2.5-6.8-7.6-6.8-7.6s-2.1,7,1.3,10.7c3.3,3.7,7.2,8,6.5,11.5
			C186.6,1443.5,191.2,1446.8,191.2,1446.8z"/>
		<path class="st37" d="M204,1458.4c0.8-2.4,1.3-4.1,1.3-4.1h-25.8c2.2,15.9,7.6,25.5,7.6,25.5h1.7
			C188.5,1464.9,198.3,1460,204,1458.4z"/>
		<polygon class="st38" points="205.2,1446.4 179.3,1446.4 177.8,1454.3 206.3,1454.3 		"/>
	</g>
	<g>
		<path class="st39" d="M898,1777.8c0,0-5.9,11-9.8,15.4c-3.9,4.4-18.7,12.2-18.8,25.2c-0.1,14.1,25,10.2,34.8,9.7
			c9.8-0.5,10.5-8.1,14.7-16c4.1-8,8.3-6.6,9.1-13.1c0.8-6.4-4-21.2-4-21.2H898z"/>
		<g>
			<path class="st39" d="M1047.2,1776.5c0,0,12.1,13.5,24.3,16.3c12.3,2.8,20.8,6.4,20.9,14.2c0.1,7.7-35.3,12.8-49.3,5
				c-20.9-11.6-23.1-8.1-25.4-13.9c-2.3-5.8,2.8-21.4,2.6-23.2C1020.2,1772.6,1047.2,1776.5,1047.2,1776.5z"/>
		</g>
		<g>
			<path class="st40" d="M1045.8,1770.1c0,0,1.6,6.3,1.4,6.4c-0.2,0.1-27.6,3.4-26.8-1.7c0.7-4.1,1.6-8.6,1.6-8.6L1045.8,1770.1z"/>
		</g>
		<g>
			<path class="st40" d="M923.6,1773.6c0,0,1.1,6,0.9,6.2c-0.2,0.1-27.8,5.1-27.6,0.1c0.1-4,2.5-8.6,2.5-8.6L923.6,1773.6z"/>
		</g>
		<g>
			<path class="st41" d="M1020.9,1392.1c0,0,10,96.7,15.1,129.8c6.1,38.7,8.1,70.7,9.8,90.7c2.1,25.2,2.5,149.1,4,156.5
				c1.5,7.4-33,2-33,2s-17-162-23.3-188.8c-5.9-25-27.8-132.6-33.1-125.7c-5.4,6.8-12,125.5-16,145.2c-4,19.7-16.1,174-16.1,174
				s-27.4,5.5-34.7-0.7c0,0-3.3-133-0.8-169.9c1-14.1-16.5-168.8,5.9-231.1C910.6,1341.2,1020.9,1392.1,1020.9,1392.1z"/>
		</g>
		<g>
			<path class="st42" d="M931.5,1370.7c0,0,6.6-10,13.7-11.3c7-1.3-96.9-51.5-96.6-69.5c0.2-14.6,37.4-38.7,37.4-38.7s0,0,0,0.1
				c0,0,0,0,0,0c0,0,0,0,0,0.1c0.8,2.9,11.5,42.8,11.9,61.9c0.4,19.9-1.2,88.3-1.2,88.3l26.6,7.1l85.1,0.8l19.4-7.9
				c0,0-2.1-22-2.9-37.5c-0.5-9.8-2.4-27.4-1.9-44.5c0,0-0.3-18.1,1.5-25.8c0.2-34.3,2.3-68.3,2.3-68.3c1.2-15.6,2-30.1,2.4-43.7
				c-3.8-2-8.3-4.3-11.9-6c-11.2-5.3-26.8-12.5-36.7-17.1c-5.9-2.7-11.6-4.7-11.6-4.7s-39.9-3.8-43.2-3.6c-1,0.1-6,1.8-12.6,4.3
				c-14.2,5.4-41.5,16.3-45.8,19.4c-6.4,4.6-48.1,115-48.7,122.6C817.6,1310.4,931.5,1370.7,931.5,1370.7z"/>
		</g>
		<path class="st43" d="M1025.4,1394.3c0,0-58.5,5-109.7,0v16.8c0,0,76.2,7.3,112.2-3.2L1025.4,1394.3z"/>
		<g>
			<path class="st44" d="M975.5,1156.4c0,0,9.5,22.3,16.6,72.3c2.7,19.2,7.8,51.5,11.5,84.4v0c2.9,26,9.6,52.6,11.7,72.5
				c2.2,20.6,8.8,81.3,8.8,81.3l16-10.1c2.3-2.1,5.5-4.9,4.6-7.8c-4.4-14.2-12.8-61.1-17.8-102c0,0,0-0.1,0-0.1
				c-0.2-2-0.5-3.9-0.7-5.9c0-0.1,0-0.2,0-0.3c-0.9-8.2-1.7-16-2.3-23.2c-0.4-5.5,0-10.9,0.7-16.1c2.2-36.7,3.3-75.4,3.3-75.4
				c1.2-15.9,1.8-30.7,2.3-44.5C1030.2,1181.5,980.1,1157.8,975.5,1156.4z"/>
		</g>
		<g>
			<path class="st44" d="M860.5,1284.8c-6.9,15.2,63.6,42.3,62,46c-3.8,9-19.4,27.3-19.4,27.3s-92.9-46-91.9-56.4
				c0.8-7.6,44.3-122.3,50.7-126.8c3.7-2.6,31-12.3,44.4-17.6c2.4-1,10.8-4.1,13-4.9c2.8,3.2,22.4,24.8,29.3,106.4
				c1.2,13.8-2.5,42.9-5,66.7c-2.6,25.4-5.5,45.2-7.7,66.4c-4.2,41.8-7.1,75.1-7.1,75.1l-41.6-18.5c-6.7-3.4-18.4-12.2-15.8-19.2
				c9.6-26.9,24-78,24.1-101.6c0,0-6.8-65.2-10.5-77.9C885,1249.6,868.3,1267.8,860.5,1284.8z"/>
		</g>
		<g>
			<path class="st13" d="M929.6,1154.6c0,0-0.3-13.7-5.6-41.5c-1.4-7.4,43.1,19.5,43.1,19.5s-0.1,2.6-0.2,6.1c0,1.9-0.1,4-0.1,6.1
				c0,0.7,0,1.5,0,2.2c0,2,0.1,3.8,0.3,5.4c0.2,1.6,1.1,4.6,1.5,5.4C970.5,1162.1,944.6,1165.3,929.6,1154.6z"/>
		</g>
		<path class="st45" d="M957.4,1169l7.4,9.9c0,0-4.3,5.8-12,1.5L957.4,1169z"/>
		<path class="st45" d="M962.8,1179.3c0,0,28,107.8,22.2,191.7l-9.4,16.6l-8.8-17.4c0,0-2.4-150.1-10.1-191.2L962.8,1179.3z"/>
		<path class="st13" d="M965.3,1159.7l-7.9,9.2c0,0-12.7-2.5-16.4-9.1C937.2,1153.3,965.3,1159.7,965.3,1159.7z"/>
		<path class="st46" d="M967.1,1151.6c0,0-0.9,7-9.7,17.3l9.6,12.9l5.2-26.8L967.1,1151.6z"/>
		<path class="st46" d="M928.7,1143.8c0,0,15.8,20.1,28.6,25.2l-6,14.8l-27.3-32.9L928.7,1143.8z"/>
		<g>
			<path class="st7" d="M1193,1292.9c0,0,29.3,3.4,31,5.3s1.3,3.5-1.5,3.3c-2.8-0.2-28.5-2.5-28.5-2.5s33.6,9.9,35.3,11.2
				c1,0.7,0.4,3.8-1.1,3.9c-1.5,0-35.5-7.9-35.5-7.9s31.4,9.3,32.5,10.8c1,1.3-0.3,4.1-2.7,3.5s-32.1-7.5-32.1-7.5
				s22.3,8.3,22.5,10.1c0.1,1.1-0.3,3.8-6,1.5c-5.7-2.3-19.7-6.3-19.7-6.3L1193,1292.9z"/>
		</g>
		<g>
			<g>
				<path class="st7" d="M1158.3,1294.3c0,0,9.8,0.5,12.7-4.4c2.5-4.2,8.7-8,10.6-9.2c2.6-1.6,8.8-9.2,10.6-6.1
					c1.8,3.1-9.7,13-11.7,15.5c-2,2.5,12,1.6,14.6,3.5c2.6,1.8,1.2,25.1-8.5,24.7c-9.7-0.5-19.2-7.4-21-7.1
					c-1.7,0.3-7.1-0.1-7.1-0.1L1158.3,1294.3z"/>
			</g>
		</g>
		<g>
			<path class="st44" d="M1162.3,1317.3c0,0-71.9-10.1-87.9-14c-7.4-1.8-17.1-12-26.3-24c-3-3.9-6-8.1-8.9-12.2c0,0,0,0,0,0
				c-11.3-16.4-20.2-32.1-20.2-32.1s-33.5-39.3-6.6-56.8c0,0,11.5-0.2,17.8,3.2c6.5,3.5,20.4,32.5,22.7,37.6
				c2.3,5.1,27.8,52.7,29.5,53.8c1.7,1.1,27.1,6.6,38.4,9c16.4,3.4,47.2,9.8,47.2,9.8L1162.3,1317.3z"/>
		</g>
		<rect x="954.9" y="1395.2" class="st47" width="27.3" height="20.7"/>
		<path class="st48" d="M936.6,1371.9c0,0-3.4-0.1-4.9-0.9c0,0-2.5-1.6-4.4-2.7c-0.6-0.3-1.1-0.6-1.5-0.7c-1.5-0.6-5-1.5-8.2-3.9
			c-3.2-2.4-13.6-12.2-13.6-12.2l6.7-10.4l3.1-10.3c0,0,24.3,2.4,27.6,4.3c0.3,0.2,0.6,0.4,0.9,0.6c2.6,1.9,3.7,4.4,5,5.6
			c0.5,0.4,4.7,5,4.5,6.8c-0.3,2.6-1.6,4.2-3.2,5c0,0-0.9,5-3.4,7.2c0,0-0.6,4.6-4.6,6.5C940.5,1366.8,939.4,1371.4,936.6,1371.9z"
			/>
		<path class="st44" d="M903.2,1358.2c0,0,13.5-11.1,20.9-27.3l-41.5-22.7l-15.4,31.4L903.2,1358.2z"/>
		<g>
			<path class="st7" d="M990.6,1064.4c0,0,9.8,18.1,4.9,21c-4,2.3,4.7,20.1,5.8,23c1.1,2.9-7.3,5-9,6.9c-1.8,1.9-7.1,24.9-14,25.6
				c-6.9,0.7-38.1-10.1-46.6-19c-8.5-8.8-15.4-48.7-9.8-65.5C927.6,1039.7,973.3,1032.7,990.6,1064.4z"/>
		</g>
		<g>
			<path class="st45" d="M992.5,1068.3c0,0,10-19.6-8.2-34.1c-18.1-14.5-51.6,11-55.4,11.9c-3.8,1-25.2,2.4-14.4,40
				c9.3,32.2,10.6,33.6,10.6,33.6s6.9-18.7,10.8-21.5c6.1-4.4,19.6-3.4,19.6-3.4s-6.4-17,3.6-19.4S982.4,1064.6,992.5,1068.3z"/>
		</g>
		<g>
			<path class="st7" d="M945,1085.1c-0.9-2.3-3.7-12.3-12.3-6.5c-8.6,5.9,5.4,24.8,6.9,25C941,1103.9,952.4,1104.7,945,1085.1z"/>
		</g>
		<path class="st17" d="M966.8,1144.9c0,0.7,0,1.5,0,2.2c-25.5-8.5-30.4-21.4-30.4-21.4c7.9,5.6,30.4,13.1,30.4,13.1
			C966.9,1140.6,966.8,1142.8,966.8,1144.9z"/>
	</g>
	
		<rect x="806.6" y="364.2" transform="matrix(-1 -1.224647e-16 1.224647e-16 -1 1714.8933 736.0383)" class="st49" width="101.7" height="7.6"/>
	
		<rect x="806.6" y="375.1" transform="matrix(-1 -1.224647e-16 1.224647e-16 -1 1714.8933 770.8367)" class="st49" width="101.7" height="20.6"/>
	
		<rect x="221" y="152.2" transform="matrix(-1 -1.224647e-16 1.224647e-16 -1 526.0818 310.2771)" class="st50" width="84.1" height="5.9"/>
	
		<rect x="221" y="163.3" transform="matrix(-1 -1.224647e-16 1.224647e-16 -1 526.0818 351.3747)" class="st50" width="84.1" height="24.8"/>
	
		<rect x="318.9" y="120.4" transform="matrix(-1 -1.224647e-16 1.224647e-16 -1 641.4695 310.2761)" class="st51" width="3.7" height="69.4"/>
	<polygon class="st49" points="1730.5,199.3 1754.2,199.3 1746.9,184.2 1723.2,184.2 	"/>
	<polygon class="st49" points="1719.4,199.3 1725,199.3 1717.8,184.2 1712.1,184.2 	"/>
	<polygon class="st49" points="1637.4,181.3 1733.5,181.3 1730.3,173.8 1634.2,173.8 	"/>
	<g>
		<g>
			
				<rect x="403.8" y="1472.6" transform="matrix(-1 -1.224647e-16 1.224647e-16 -1 926.2802 2952.2009)" class="st52" width="118.6" height="7"/>
		</g>
		<g>
			<rect x="496.2" y="1498" class="st53" width="10.4" height="320.3"/>
		</g>
		<g>
			
				<rect x="339.9" y="1470.6" transform="matrix(-1 -1.224647e-16 1.224647e-16 -1 762.2976 2951.2234)" class="st54" width="82.5" height="10.1"/>
		</g>
		<g>
			
				<rect x="365.5" y="1384.8" transform="matrix(-1 -1.224647e-16 1.224647e-16 -1 762.2976 2864.3865)" class="st55" width="31.2" height="94.9"/>
		</g>
		<g>
			
				<rect x="108.1" y="1479.7" transform="matrix(-1 -1.224647e-16 1.224647e-16 -1 673.1062 2977.6912)" class="st56" width="456.9" height="18.2"/>
		</g>
		<g>
			<path class="st57" d="M652.7,1369.5c0,0,5,70.1-8.7,78.5c-8.6,5.3-42.8,23-41.8,26.3c1,3.3,19.3,29.6,19.3,29.6
				s65.7-43.3,67.8-56.9c2.1-13.3-3.2-102.6-12.3-106.7c-6.8-3.1-10.3-0.5-18.9,5.8C646.3,1354.9,652.7,1369.5,652.7,1369.5z"/>
		</g>
		<g>
			<g>
				<g>
					<path class="st58" d="M533,1389.5l-5.8-2.1c0,0,7.2-17,10.4-16.5c3.6,0.5,8.2,1.7,8.2,1.7L533,1389.5z"/>
				</g>
			</g>
		</g>
		<g>
			<g>
				<g>
					<path class="st59" d="M531.7,1392.4c0.7-0.6,12.3-22.7,12.3-22.7l24.7,3.4l-13.4,26.3L531.7,1392.4z"/>
				</g>
			</g>
		</g>
		<g>
			<g>
				<g>
					<path class="st60" d="M571.9,1774.5c0,0,2,14.2,2.3,16.3c0.3,2.1,22.7-1.3,22.7-1.3l1.8-16.9
						C598.7,1772.7,574.7,1772.5,571.9,1774.5z"/>
				</g>
			</g>
		</g>
		<g>
			<g>
				<g>
					<path class="st41" d="M573.9,1789c0,0-7.1,8.5-14,12.3c-6.9,3.7-17.7,5.2-21.8,9.1c-2.9,2.8-10.7,14.8,17.9,14.5
						c28.6-0.2,42.4,1.7,45.5-2.9s-4.4-33.9-4.4-33.9S590.3,1790.5,573.9,1789z"/>
				</g>
			</g>
		</g>
		<g>
			<g>
				<g>
					<path class="st60" d="M427.9,1774.7c0,0,2,14.2,2.3,16.3c0.3,2.1,22.7-1.3,22.7-1.3l1.8-16.9
						C454.8,1772.8,430.7,1772.7,427.9,1774.7z"/>
				</g>
			</g>
		</g>
		<g>
			<g>
				<g>
					<path class="st41" d="M430,1789.2c0,0-7.1,8.5-14,12.3c-6.9,3.7-32.2,6.8-36.3,10.6c-2.9,2.8-7.8,14,32.4,12.9
						c28.6-0.7,42.4,1.7,45.5-2.9c3.1-4.6-4.4-33.9-4.4-33.9S446.7,1790.8,430,1789.2z"/>
				</g>
			</g>
		</g>
		<g>
			<g>
				<g>
					<path class="st41" d="M644.4,1529.6c0,0-81.7,13.8-100.2,16.7c-18.5,2.9-118.5,27.8-131,35.4c-10,6,5.2,151.1,8.8,206.4h39.4
						l2.9-166c47.3,1.2,81-11.1,115.5-5.8c34.4,5.2,63.1,12.7,85-16.7C664.7,1599.6,665.6,1536,644.4,1529.6z"/>
				</g>
			</g>
		</g>
		<g>
			<g>
				<g>
					<path class="st41" d="M563.8,1788.2l38.4-2.4l3.7-163.7c20.4,0.5,27.3-0.8,43.8-2.8l31-72.1c-27.2,5.4-114.2,27.4-125.9,34.4
						C545,1587.7,560.3,1732.9,563.8,1788.2z"/>
				</g>
			</g>
		</g>
		<g>
			<g>
				<g>
					<path class="st7" d="M606.8,1223.3c0,0-30-8.3-41.4,15c-11.4,23.2-6.2,67.3,8.8,71.5c15.1,4.1,36.8-0.6,43.1-15.1
						c6.3-14.5,11.3-35,9.8-48.3S614.7,1226.5,606.8,1223.3z"/>
				</g>
			</g>
		</g>
		<g>
			<g>
				<g>
					<path class="st7" d="M582.1,1305.1c0,0,0.3,17.7-1.6,21.5c-1.9,3.8,41.7,2.8,41.7,2.8s-6.9-21.2-3-39.3
						C623,1272.2,582.1,1305.1,582.1,1305.1z"/>
				</g>
			</g>
		</g>
		<g>
			<g>
				<g>
					<path class="st61" d="M621.5,1283.4c0,0-2.3,4.7-13.6,4c-11.3-0.8-26.2-14.4-31-15.6c-4.8-1.2-5.1-3.9-5.1-3.9l-2.5,4.5
						l-4.9,0.7c0,0,3.3-13.7-3.9-18.5c-7.3-4.8,3.3-43.6,40.1-34.2c0,0,28.1,5.2,28.5,20.9C629.4,1256.9,627,1275.1,621.5,1283.4z"
						/>
				</g>
			</g>
		</g>
		<g>
			<g>
				<g>
					<path class="st52" d="M578.1,1326.1c0,0,0.1-7.2,3.4-7.9c3.3-0.7,34.3-5,38.3-3.4l1.7,9.5
						C621.6,1324.4,613.9,1329.1,578.1,1326.1z"/>
				</g>
			</g>
		</g>
		<g>
			<g>
				<g>
					<path class="st7" d="M569.2,1264.6c0.8-5.9,7.5-12.7,11.4-3.5c3.8,9.2-2.6,22.6-6.9,21.9C569.3,1282.2,568,1272.6,569.2,1264.6
						z"/>
				</g>
			</g>
		</g>
		<g>
			<g>
				<g>
					<path class="st44" d="M448.1,1411.2C448.1,1411.2,448.1,1411.2,448.1,1411.2C447.9,1411.3,447.9,1411.3,448.1,1411.2z"/>
				</g>
			</g>
		</g>
		<g>
			<g>
				<g>
					<path class="st61" d="M615.5,1227.5c0,0,36.5-1.7,6.4,55.3L615.5,1227.5z"/>
				</g>
			</g>
		</g>
		<g>
			<g>
				<polygon class="st62" points="696.9,1807.6 694.1,1815.3 579.4,1779.7 584.9,1764.2 				"/>
			</g>
		</g>
		<g>
			<g>
				
					<rect x="575.4" y="1649.5" transform="matrix(-1 -1.224647e-16 1.224647e-16 -1 1163.9041 3423.7419)" class="st62" width="13" height="124.8"/>
			</g>
		</g>
		<g>
			<g>
				
					<rect x="543.5" y="1642.8" transform="matrix(-1 -1.224647e-16 1.224647e-16 -1 1163.9042 3293.0486)" class="st63" width="76.9" height="7.4"/>
			</g>
		</g>
		<g>
			<g>
				<polygon class="st62" points="466,1807.6 468.8,1815.3 583.5,1779.7 578.5,1763.3 				"/>
			</g>
		</g>
		<g>
			<g>
				<polygon class="st62" points="546.9,1814.5 546.9,1823.3 583.5,1779.7 578.5,1763.3 				"/>
			</g>
		</g>
		<g>
			<g>
				
					<ellipse transform="matrix(0.7071 -0.7071 0.7071 0.7071 -1149.2041 862.0924)" class="st64" cx="466" cy="1818.3" rx="10.7" ry="10.7"/>
			</g>
		</g>
		<g>
			<g>
				
					<ellipse transform="matrix(0.7071 -0.7071 0.7071 0.7071 -1122.6434 926.2154)" class="st64" cx="556.7" cy="1818.3" rx="10.7" ry="10.7"/>
			</g>
		</g>
		<g>
			<g>
				<path class="st64" d="M686.1,1818.3c0,5.9,4.8,10.7,10.7,10.7c5.9,0,10.7-4.8,10.7-10.7c0-5.9-4.8-10.7-10.7-10.7
					C690.9,1807.5,686.1,1812.3,686.1,1818.3z"/>
			</g>
		</g>
		<g>
			<path class="st65" d="M500.1,1642.8h162.7c5.4,0,9.8-4.4,9.8-9.8v-8.2c0-5.4-4.4-9.8-9.8-9.8H500.1c-5.4,0-9.8,4.4-9.8,9.8v8.2
				C490.3,1638.5,494.7,1642.8,500.1,1642.8z"/>
		</g>
		<g>
			
				<rect x="166.5" y="1498" transform="matrix(-1 -1.224647e-16 1.224647e-16 -1 343.4832 3316.2097)" class="st53" width="10.4" height="320.3"/>
		</g>
		<g>
			
				<linearGradient id="SVGID_00000103234157785014350820000012337165872652411276_" gradientUnits="userSpaceOnUse" x1="246.312" y1="1335.3383" x2="515.9858" y2="1335.3383">
				<stop  offset="0" style="stop-color:#FF9F55"/>
				<stop  offset="1" style="stop-color:#FFD255"/>
			</linearGradient>
			<path style="fill:url(#SVGID_00000103234157785014350820000012337165872652411276_);" d="M256.1,1430.5h250.1
				c5.4,0,9.8-4.4,9.8-9.8V1250c0-5.4-4.4-9.8-9.8-9.8H256.1c-5.4,0-9.8,4.4-9.8,9.8v170.7C246.3,1426.1,250.7,1430.5,256.1,1430.5z
				"/>
		</g>
		<g>
			
				<rect x="256.9" y="1250.5" transform="matrix(-1 -1.224647e-16 1.224647e-16 -1 762.2987 2651.1472)" class="st67" width="248.5" height="150.1"/>
		</g>
		<g>
			<path class="st68" d="M325.3,1480v-3.4c0,0,4.8-21.1,38.4-21.1c33.7,0,33,24.4,33,24.4H325.3z"/>
		</g>
		<g>
			<g>
				<path class="st7" d="M397.1,1458.7c0,0-7.3-0.6-10-2.2c-2.7-1.6-18.7-12.4-22.5-10.7c-3.8,1.7-28.8,9.4-28,13.1
					c0.9,3.7,3.2,3.3,5,2.7c1.8-0.6,20-4.5,21.6-3.8c0,0-17.9,6.5-17.9,11.3c-0.1,4.8,3.7,5.9,5.4,7.7c1.7,1.8,3.7,6.3,8.3,6.6
					c4.6,0.3,27.1-7.5,31.7-7.8c4.6-0.4,13.2,0.3,13.8-0.5C405.1,1474.3,397.1,1458.7,397.1,1458.7z"/>
			</g>
		</g>
		<g>
			<g>
				<g>
					<path class="st57" d="M530.3,1336.1c23.3-4.1,47.9-10,47.9-10l43.4-1.8c0,0,39.9,8.8,55.6,15.9c1.5,0.7,1.5,35.6,5.6,44.7
						l-13,27.5c0,0-7.5,54.4-9.1,78.6c-0.7,11.1,2,107.3,2,107.3s-3.9,1.9-33.5,5.2c-29.6,3.3-103.7-1.2-104.2-4.7
						c-0.5-3.5,14.3-130.4,15-136.9c1-10.1-2.9-56.7-2.9-56.7c-5.6,7.5-19.8,41.4-34.7,57.5c-8.7,9.5-52,15.3-60.1,15.6
						c-17.7,0.6-50.1,4.1-51,2.4c-0.8-1-2.8-28.7-0.8-29.4c1.8-0.6,61.8-4.1,77.2-12.2c5.6-3,22.5-39.7,22.5-39.7
						S517.4,1341.9,530.3,1336.1z"/>
				</g>
			</g>
		</g>
		<g>
			<path class="st65" d="M608.3,1595.5h88.1c10.4,0,18.8-8.4,18.8-18.8v-136.5c0-10.4-8.4-18.8-18.8-18.8h-88.1
				c-10.4,0-18.8,8.4-18.8,18.8v136.5C589.5,1587.1,597.9,1595.5,608.3,1595.5z"/>
		</g>
		<g>
			<path class="st65" d="M611.7,1635.9c18.5,0,33.6-6.2,44.7-18.5c25.1-27.7,20.6-76.5,20.4-78.6c-0.4-3.8-3.8-6.7-7.6-6.3
				c-3.8,0.4-6.6,3.8-6.3,7.6c0.1,0.6,4.1,44.8-16.9,67.8c-8.5,9.3-19.7,13.9-34.3,13.9c-3.9,0-7,3.1-7,7S607.9,1635.9,611.7,1635.9
				z"/>
		</g>
		<g>
			<g>
				<g>
					<path class="st69" d="M416.4,1270.4h70c0.8,0,1.4-0.6,1.4-1.4v-5.1c0-0.8-0.6-1.4-1.4-1.4h-70c-0.8,0-1.4,0.6-1.4,1.4v5.1
						C415,1269.8,415.6,1270.4,416.4,1270.4z"/>
				</g>
			</g>
		</g>
		<g>
			<g>
				<g>
					<path class="st69" d="M416.4,1287.4h70c0.8,0,1.4-0.6,1.4-1.4v-5.1c0-0.8-0.6-1.4-1.4-1.4h-70c-0.8,0-1.4,0.6-1.4,1.4v5.1
						C415,1286.8,415.6,1287.4,416.4,1287.4z"/>
				</g>
			</g>
		</g>
		<g>
			<g>
				<g>
					<path class="st69" d="M419.7,1388.7h63.4c2.6,0,4.7-2.1,4.7-4.7v-80.3c0-2.6-2.1-4.7-4.7-4.7h-63.4c-2.6,0-4.7,2.1-4.7,4.7
						v80.3C415,1386.6,417.1,1388.7,419.7,1388.7z"/>
				</g>
			</g>
		</g>
		<g>
			<g>
				<g>
					<path class="st69" d="M278.1,1388.7h114.7c4.1,0,7.5-3.3,7.5-7.5v-111.3c0-4.1-3.3-7.5-7.5-7.5H278.1c-4.1,0-7.5,3.3-7.5,7.5
						v111.3C270.6,1385.3,274,1388.7,278.1,1388.7z"/>
				</g>
			</g>
		</g>
	</g>
</g>
</svg>
